<svg width="46" height="46" viewBox="0 0 46 46" fill="none" xmlns="http://www.w3.org/2000/svg">
<mask id="mask0_101_369" style="mask-type:alpha" maskUnits="userSpaceOnUse" x="0" y="0" width="46" height="46">
<rect x="0.705597" y="0.319145" width="45" height="45" fill="#D9D9D9"/>
</mask>
<g mask="url(#mask0_101_369)">
<path d="M8.2056 41.5691C7.17435 41.5691 6.29153 41.202 5.55716 40.4676C4.82278 39.7332 4.4556 38.8504 4.4556 37.8191V19.0691C4.4556 18.0379 4.82278 17.1551 5.55716 16.4207C6.29153 15.6863 7.17435 15.3191 8.2056 15.3191H11.9556V5.94415C11.9556 5.4129 12.1353 4.96758 12.4947 4.60821C12.854 4.24883 13.2993 4.06915 13.8306 4.06915H25.0806C25.6118 4.06915 26.0572 4.24883 26.4165 4.60821C26.7759 4.96758 26.9556 5.4129 26.9556 5.94415V9.69415C26.9556 10.2254 26.7759 10.6707 26.4165 11.0301C26.0572 11.3895 25.6118 11.5691 25.0806 11.5691H15.7056V24.6941C15.7056 25.2254 15.8853 25.6707 16.2447 26.0301C16.604 26.3895 17.0493 26.5691 17.5806 26.5691C18.1118 26.5691 18.5572 26.3895 18.9165 26.0301C19.2759 25.6707 19.4556 25.2254 19.4556 24.6941V15.3191H38.2056C39.2368 15.3191 40.1197 15.6863 40.854 16.4207C41.5884 17.1551 41.9556 18.0379 41.9556 19.0691V37.8191C41.9556 38.8504 41.5884 39.7332 40.854 40.4676C40.1197 41.202 39.2368 41.5691 38.2056 41.5691H8.2056Z" fill="#FBFEFB"/>
</g>
</svg>
